<svg width="1125" height="1000" viewBox="0 0 1125 1000" fill="none" xmlns="http://www.w3.org/2000/svg">
<g clip-path="url(#clip0_1296_2)">
<mask id="path-1-outside-1_1296_2" maskUnits="userSpaceOnUse" x="44.8701" y="-0.724121" width="1072" height="986" fill="black">
<rect fill="white" x="44.8701" y="-0.724121" width="1072" height="986"/>
<path fill-rule="evenodd" clip-rule="evenodd" d="M822.719 169.062L779.419 144.062L779.418 144.062C753.683 129.204 725.943 119.839 697.106 115.579L554.782 51.8956C423.012 -24.1817 233.924 56.6373 132.442 232.41C30.9592 408.182 55.5119 612.347 187.282 688.424L313.595 779.838C331.703 802.682 353.683 822.024 379.418 836.882L379.419 836.883L379.568 836.969L422.569 861.795L422.719 861.882L422.72 861.883C438.856 871.198 455.78 878.355 473.269 883.447C507.056 903.642 545.64 919.65 587.566 930.399C590.698 943.434 597.194 953.183 606.944 957.66C621.29 964.247 639.701 958.053 657.153 942.933C675.217 944.875 693.693 945.88 712.487 945.88C922.355 945.88 1092.49 820.52 1092.49 665.88C1092.49 577.433 1036.83 498.564 949.917 447.251C956.754 327.713 912.67 220.995 822.72 169.062L822.719 169.062Z"/>
</mask>
<path fill-rule="evenodd" clip-rule="evenodd" d="M822.719 169.062L779.419 144.062L779.418 144.062C753.683 129.204 725.943 119.839 697.106 115.579L554.782 51.8956C423.012 -24.1817 233.924 56.6373 132.442 232.41C30.9592 408.182 55.5119 612.347 187.282 688.424L313.595 779.838C331.703 802.682 353.683 822.024 379.418 836.882L379.419 836.883L379.568 836.969L422.569 861.795L422.719 861.882L422.72 861.883C438.856 871.198 455.78 878.355 473.269 883.447C507.056 903.642 545.64 919.65 587.566 930.399C590.698 943.434 597.194 953.183 606.944 957.66C621.29 964.247 639.701 958.053 657.153 942.933C675.217 944.875 693.693 945.88 712.487 945.88C922.355 945.88 1092.49 820.52 1092.49 665.88C1092.49 577.433 1036.83 498.564 949.917 447.251C956.754 327.713 912.67 220.995 822.72 169.062L822.719 169.062Z" fill="white"/>
<path d="M779.419 144.062L791.419 123.278L790.925 122.992L790.418 122.731L779.419 144.062ZM822.719 169.062L810.719 189.846L811.213 190.132L811.72 190.393L822.719 169.062ZM779.418 144.062L767.418 164.846L767.912 165.132L768.419 165.393L779.418 144.062ZM697.106 115.579L687.303 137.486L690.324 138.838L693.598 139.322L697.106 115.579ZM554.782 51.8956L542.782 72.6802L543.851 73.2979L544.979 73.8025L554.782 51.8956ZM132.442 232.41L111.657 220.41L111.657 220.41L132.442 232.41ZM187.282 688.424L201.352 668.982L200.351 668.257L199.282 667.64L187.282 688.424ZM313.595 779.838L332.403 764.93L330.347 762.336L327.666 760.396L313.595 779.838ZM379.418 836.882L367.418 857.667L368.041 858.027L368.685 858.348L379.418 836.882ZM379.419 836.883L391.42 816.099L390.796 815.739L390.152 815.416L379.419 836.883ZM379.568 836.969L367.566 857.752L367.568 857.753L379.568 836.969ZM422.569 861.795L434.579 841.016L434.569 841.011L422.569 861.795ZM422.719 861.882L410.709 882.661L411.337 883.024L411.986 883.348L422.719 861.882ZM422.72 861.883L434.72 841.098L434.097 840.738L433.453 840.416L422.72 861.883ZM473.269 883.447L485.582 862.846L482.937 861.266L479.979 860.404L473.269 883.447ZM587.566 930.399L610.902 924.792L607.526 910.74L593.526 907.15L587.566 930.399ZM606.944 957.66L596.929 979.47L596.929 979.47L606.944 957.66ZM657.153 942.933L659.718 919.07L649.333 917.954L641.438 924.794L657.153 942.933ZM949.917 447.251L925.957 445.881L925.121 460.482L937.716 467.918L949.917 447.251ZM822.72 169.062L834.72 148.278L834.226 147.992L833.719 147.731L822.72 169.062ZM767.419 164.847L810.719 189.846L834.719 148.277L791.419 123.278L767.419 164.847ZM768.419 165.393L768.42 165.394L790.418 122.731L790.417 122.731L768.419 165.393ZM693.598 139.322C719.57 143.159 744.412 151.564 767.418 164.846L791.418 123.277C762.955 106.844 732.315 96.5203 700.613 91.8371L693.598 139.322ZM544.979 73.8025L687.303 137.486L706.908 93.6725L564.584 29.9887L544.979 73.8025ZM153.226 244.41C201.623 160.584 270.474 100.215 341.686 69.7778C412.891 39.3439 484.91 39.2678 542.782 72.6802L566.782 31.111C492.884 -11.5539 404.474 -9.25913 322.821 25.6403C241.177 60.5364 164.742 128.464 111.657 220.41L153.226 244.41ZM199.282 667.64C141.41 634.227 105.466 571.819 96.2204 494.937C86.9736 418.047 104.829 328.236 153.226 244.41L111.657 220.41C58.5717 312.356 37.9624 412.514 48.5638 500.668C59.1662 588.831 101.384 666.544 175.282 709.209L199.282 667.64ZM327.666 760.396L201.352 668.982L173.211 707.867L299.524 799.281L327.666 760.396ZM391.418 816.097C368.412 802.815 348.712 785.504 332.403 764.93L294.787 794.747C314.694 819.86 338.955 841.234 367.418 857.667L391.418 816.097ZM390.152 815.416L390.151 815.416L368.685 858.348L368.686 858.349L390.152 815.416ZM391.57 816.185L391.42 816.099L367.417 857.666L367.566 857.752L391.57 816.185ZM434.569 841.011L391.568 816.184L367.568 857.753L410.569 882.58L434.569 841.011ZM434.729 841.103L434.579 841.016L410.559 882.574L410.709 882.661L434.729 841.103ZM433.453 840.416L433.452 840.416L411.986 883.348L411.987 883.349L433.453 840.416ZM479.979 860.404C464.305 855.84 449.16 849.435 434.72 841.098L410.72 882.667C428.551 892.962 447.255 900.869 466.559 906.49L479.979 860.404ZM593.526 907.15C553.701 896.94 517.275 881.79 485.582 862.846L460.956 904.048C496.837 925.494 537.58 942.359 581.606 953.647L593.526 907.15ZM616.959 935.849C616.215 935.508 613.013 933.578 610.902 924.792L564.23 936.006C568.383 953.29 578.173 970.858 596.929 979.47L616.959 935.849ZM641.438 924.794C634.481 930.82 628.406 934.102 623.885 935.48C619.548 936.802 617.613 936.15 616.959 935.849L596.929 979.47C624.506 992.133 653.25 978.069 672.868 961.072L641.438 924.794ZM712.487 921.88C694.548 921.88 676.928 920.92 659.718 919.07L654.588 966.795C673.505 968.829 692.837 969.88 712.487 969.88V921.88ZM1068.49 665.88C1068.49 733.768 1031.19 797.211 966.951 844.549C902.717 891.879 812.829 921.88 712.487 921.88V969.88C822.014 969.88 922.126 937.201 995.425 883.191C1068.71 829.189 1116.49 752.632 1116.49 665.88H1068.49ZM937.716 467.918C1019.64 516.284 1068.49 588.312 1068.49 665.88H1116.49C1116.49 566.554 1054.02 480.844 962.119 426.584L937.716 467.918ZM810.72 189.847C890.49 235.902 932.45 332.354 925.957 445.881L973.878 448.621C981.059 323.071 934.85 206.088 834.72 148.278L810.72 189.847ZM811.72 190.393L811.721 190.394L833.719 147.731L833.718 147.731L811.72 190.393Z" fill="black" mask="url(#path-1-outside-1_1296_2)"/>
<path fill-rule="evenodd" clip-rule="evenodd" d="M423.97 859.718L821.47 171.228L554.782 51.8958C423.012 -24.1815 233.924 56.6376 132.442 232.41C30.9592 408.183 55.5119 612.347 187.282 688.424L423.97 859.718Z" fill="#E7E7E7"/>
<path d="M427.719 853.222C359.312 813.727 318.054 740.641 307.514 653.159C296.974 565.673 317.321 464.438 371.572 370.472C425.823 276.506 503.322 208.268 584.357 173.653C665.388 139.04 749.312 138.228 817.719 177.722C886.126 217.217 927.384 290.304 937.924 377.785C948.464 465.271 928.118 566.506 873.867 660.472C819.615 754.438 742.116 822.676 661.081 857.291C580.05 891.904 496.126 892.717 427.719 853.222Z" fill="#D9D9D9" stroke="white" stroke-width="20"/>
<path d="M384.418 828.222C316.011 788.727 274.753 715.641 264.213 628.159C253.673 540.673 274.019 439.438 328.271 345.472C382.522 251.506 460.021 183.268 541.056 148.653C622.087 114.04 706.011 113.228 774.418 152.722C842.825 192.217 884.083 265.304 894.623 352.785C905.163 440.271 884.817 541.506 830.565 635.472C776.314 729.438 698.815 797.676 617.78 832.291C536.749 866.904 452.825 867.717 384.418 828.222Z" fill="white" stroke="white" stroke-width="20"/>
<rect x="822.72" y="169.062" width="800" height="50" transform="rotate(120 822.72 169.062)" fill="white"/>
<ellipse cx="622.719" cy="515.472" rx="380" ry="280" transform="rotate(120 622.719 515.472)" fill="#FFA500"/>
<ellipse cx="712.487" cy="665.88" rx="380" ry="280" fill="#FFA500"/>
<ellipse cx="657.008" cy="501.521" rx="68.4" ry="49.56" transform="rotate(40.8009 657.008 501.521)" fill="#D16500"/>
<ellipse cx="648.132" cy="867.962" rx="98.7027" ry="52.08" transform="rotate(114.664 648.132 867.962)" fill="#D16500"/>
<ellipse cx="775.154" cy="680.763" rx="65.2231" ry="38.08" transform="rotate(44.9879 775.154 680.763)" fill="#D16500"/>
<ellipse cx="523.488" cy="642.38" rx="116" ry="66.5" transform="rotate(43.2395 523.488 642.38)" fill="#D16500"/>
<ellipse cx="910.487" cy="790.88" rx="76" ry="41" transform="rotate(23.7929 910.487 790.88)" fill="#D16500"/>
<ellipse cx="944.317" cy="580.567" rx="112.445" ry="70.56" transform="rotate(30.2191 944.317 580.567)" fill="#D16500"/>
<path fill-rule="evenodd" clip-rule="evenodd" d="M397.946 27.7414C409.016 25.707 420.059 24.3667 431.021 23.7434L621.444 133.684L611.444 151.005L399.268 28.505L397.946 27.7414ZM344.28 42.9455C352.684 39.7293 361.122 36.8951 369.571 34.4531L569.401 149.825L559.401 167.146L344.28 42.9455ZM300.043 63.5935C307.066 59.7106 314.144 56.0941 321.263 52.7505L527.751 171.966L517.751 189.287L300.043 63.5935ZM261.871 87.7428C267.956 83.387 274.108 79.2371 280.316 75.298L485.234 193.608L475.234 210.928L261.871 87.7428ZM228.265 114.528C233.624 109.796 239.058 105.232 244.558 100.841L462.636 226.749L452.636 244.069L228.265 114.528ZM198.423 143.487C203.172 138.432 208.003 133.521 212.908 128.756L427.914 252.89L417.914 270.21L198.423 143.487ZM171.874 174.347C176.084 169.002 180.381 163.783 184.758 158.691L407.914 287.531L397.914 304.851L171.874 174.347ZM148.334 206.944C152.046 201.329 155.85 195.825 159.741 190.436L386.182 321.172L376.182 338.492L148.334 206.944ZM127.637 241.183C129.241 238.272 130.879 235.369 132.551 232.473C134.223 229.577 135.919 226.707 137.637 223.863L366.182 355.813L356.182 373.133L127.637 241.183ZM109.741 277.038C112.463 270.975 115.327 264.929 118.334 258.906L346.182 390.454L336.182 407.774L109.741 277.038ZM94.7576 314.576C96.9781 308.24 99.3499 301.909 101.874 295.59L106.211 298.095L314.923 418.595L304.923 435.915L96.2111 315.415L94.7576 314.576ZM82.9082 353.923C84.5819 347.293 86.4198 340.653 88.4226 334.012L322.636 469.236L312.636 486.556L82.9082 353.923ZM74.5578 395.29C75.6105 388.331 76.8459 381.343 78.265 374.336L302.636 503.877L292.636 521.197L74.5578 395.29ZM70.316 439.029C70.6232 431.682 71.1411 424.28 71.871 416.832L293.028 544.518L283.028 561.838L70.316 439.029ZM71.2625 485.763C70.5988 477.926 70.1917 469.988 70.0433 461.965L279.09 582.659L269.09 599.979L71.2625 485.763ZM79.5705 536.748C77.4611 528.21 75.6965 519.485 74.2799 510.599L289.401 634.8L279.401 652.12L79.5705 536.748ZM101.021 595.32C96.0798 585.516 91.7191 575.282 87.9455 564.677L301.444 687.941L291.444 705.261L101.021 595.32ZM577.73 62.2579L691.674 128.043L681.674 145.364L473.828 25.3639L473.182 24.991C501.819 28.4215 529.366 37.2418 554.783 51.896L577.73 62.2579ZM206.33 702.308L187.283 688.425C161.883 673.74 140.471 654.294 123.182 631.209L331.674 751.582L321.674 768.902L206.33 702.308Z" fill="white"/>
<mask id="path-16-outside-2_1296_2" maskUnits="userSpaceOnUse" x="22.8057" y="707.706" width="223.611" height="222.196" fill="black">
<rect fill="white" x="22.8057" y="707.706" width="223.611" height="222.196"/>
<path fill-rule="evenodd" clip-rule="evenodd" d="M75.6264 847.398C80.5022 839.567 84.0282 828.739 80.7122 820.131C71.4578 796.107 73.741 771.579 89.0534 756.266C112.338 732.982 156.932 739.825 188.658 771.55C220.383 803.276 227.226 847.871 203.942 871.155C185.127 889.97 152.398 889.113 123.787 871.352C123.741 871.323 123.68 871.357 123.68 871.412C123.68 891.924 111.476 908.552 96.4214 908.552C81.3669 908.552 69.1629 891.924 69.1629 871.412C69.1629 862.255 71.5947 853.873 75.6264 847.398Z"/>
</mask>
<path fill-rule="evenodd" clip-rule="evenodd" d="M75.6264 847.398C80.5022 839.567 84.0282 828.739 80.7122 820.131C71.4578 796.107 73.741 771.579 89.0534 756.266C112.338 732.982 156.932 739.825 188.658 771.55C220.383 803.276 227.226 847.871 203.942 871.155C185.127 889.97 152.398 889.113 123.787 871.352C123.741 871.323 123.68 871.357 123.68 871.412C123.68 891.924 111.476 908.552 96.4214 908.552C81.3669 908.552 69.1629 891.924 69.1629 871.412C69.1629 862.255 71.5947 853.873 75.6264 847.398Z" fill="#FFA500"/>
<path d="M89.0534 756.266L80.5681 747.781L89.0534 756.266ZM188.658 771.55L180.173 780.036L188.658 771.55ZM203.942 871.155L195.457 862.67L203.942 871.155ZM96.4214 908.552L96.4214 896.552L96.4214 908.552ZM69.1629 871.412L57.1629 871.412L57.1629 871.412L69.1629 871.412ZM123.787 871.352L130.116 861.157L123.787 871.352ZM80.7122 820.131L69.5143 824.444L80.7122 820.131ZM75.6264 847.398L65.4396 841.055L75.6264 847.398ZM97.5386 764.751C86.7012 775.589 83.7079 794.525 91.91 815.817L69.5143 824.444C59.2077 797.689 60.7808 767.568 80.5681 747.781L97.5386 764.751ZM180.173 780.036C165.926 765.789 149.118 757.48 133.87 755.141C118.614 752.8 105.831 756.459 97.5386 764.751L80.5681 747.781C95.5599 732.789 116.716 728.228 137.51 731.418C158.312 734.61 179.664 745.586 197.143 763.065L180.173 780.036ZM195.457 862.67C203.749 854.377 207.408 841.594 205.068 826.338C202.728 811.091 194.419 794.282 180.173 780.036L197.143 763.065C214.622 780.544 225.598 801.896 228.79 822.698C231.981 843.492 227.419 864.648 212.427 879.64L195.457 862.67ZM130.116 861.157C156.24 877.374 182.19 875.936 195.457 862.67L212.427 879.64C188.064 904.004 148.555 900.852 117.458 881.548L130.116 861.157ZM96.4214 896.552C99.2116 896.552 102.747 895.036 106.022 890.574C109.292 886.118 111.68 879.382 111.68 871.412L135.68 871.412C135.68 883.953 131.965 895.788 125.37 904.774C118.78 913.754 108.686 920.552 96.4213 920.552L96.4214 896.552ZM81.1629 871.412C81.1629 879.382 83.5505 886.118 86.8208 890.574C90.096 895.036 93.6311 896.552 96.4214 896.552L96.4213 920.552C84.1571 920.552 74.063 913.754 67.4726 904.774C60.8772 895.788 57.1629 883.953 57.1629 871.412L81.1629 871.412ZM85.8131 853.74C83.057 858.167 81.1629 864.32 81.1629 871.412L57.1629 871.412C57.1629 860.191 60.1324 849.578 65.4396 841.055L85.8131 853.74ZM117.458 881.548C125.259 886.39 135.68 880.938 135.68 871.411L111.68 871.412C111.679 861.776 122.223 856.257 130.116 861.157L117.458 881.548ZM91.91 815.817C94.6848 823.02 94.3585 830.453 92.9459 836.702C91.5217 843.001 88.8239 848.905 85.8131 853.74L65.4396 841.055C67.3047 838.06 68.8078 834.633 69.5366 831.41C70.2768 828.135 70.0555 825.849 69.5143 824.444L91.91 815.817Z" fill="black" mask="url(#path-16-outside-2_1296_2)"/>
</g>
<defs>
<clipPath id="clip0_1296_2">
<rect width="1125" height="1000" fill="white"/>
</clipPath>
</defs>
</svg>
