<svg width="1000" height="1000" viewBox="0 0 1000 1000" fill="none" xmlns="http://www.w3.org/2000/svg">
<mask id="path-1-outside-1_1300_2" maskUnits="userSpaceOnUse" x="27.3241" y="24.0073" width="946.608" height="952.972" fill="black">
<rect fill="white" x="27.3241" y="24.0073" width="946.608" height="952.972"/>
<path fill-rule="evenodd" clip-rule="evenodd" d="M272.861 238.97C266.957 250.887 253.612 260.642 240.561 262.943C221.7 266.268 67.1647 278.06 63.904 259.568C60.6433 241.075 209.892 199.301 228.753 195.976C240.403 193.922 254.306 197.368 264.001 204.662C265.047 205.222 266.06 205.832 267.028 206.489L398.741 183.265L397.131 174.133L721.133 117.003L725.955 144.353L779.362 153.468L786.568 194.337L739.5 221.168L745.128 253.085L673.127 265.781L681.59 313.773L683.144 313.356L687.544 329.777L691.686 345.232L694.004 344.611L732.62 370.498L843.912 785.846L635.272 841.751L523.98 426.403L544.478 384.676L532.308 387.937L528.167 372.482L542.642 368.603L538.256 352.179L539.81 351.763L523.128 257.151C504.942 225.755 457.478 234.124 451.127 269.847L415.127 276.195L404.471 215.763L272.861 238.97Z"/>
</mask>
<path fill-rule="evenodd" clip-rule="evenodd" d="M272.861 238.97C266.957 250.887 253.612 260.642 240.561 262.943C221.7 266.268 67.1647 278.06 63.904 259.568C60.6433 241.075 209.892 199.301 228.753 195.976C240.403 193.922 254.306 197.368 264.001 204.662C265.047 205.222 266.06 205.832 267.028 206.489L398.741 183.265L397.131 174.133L721.133 117.003L725.955 144.353L779.362 153.468L786.568 194.337L739.5 221.168L745.128 253.085L673.127 265.781L681.59 313.773L683.144 313.356L687.544 329.777L691.686 345.232L694.004 344.611L732.62 370.498L843.912 785.846L635.272 841.751L523.98 426.403L544.478 384.676L532.308 387.937L528.167 372.482L542.642 368.603L538.256 352.179L539.81 351.763L523.128 257.151C504.942 225.755 457.478 234.124 451.127 269.847L415.127 276.195L404.471 215.763L272.861 238.97Z" fill="black"/>
<path d="M240.561 262.943L236.22 238.323L236.22 238.323L240.561 262.943ZM272.861 238.97L268.52 214.35L256.07 216.545L250.459 227.873L272.861 238.97ZM63.904 259.568L39.2838 263.909L63.904 259.568ZM228.753 195.976L233.094 220.596L228.753 195.976ZM264.001 204.662L248.972 224.64L250.509 225.796L252.205 226.703L264.001 204.662ZM267.028 206.489L252.987 227.174L261.38 232.871L271.37 231.109L267.028 206.489ZM398.741 183.265L403.082 207.885L427.702 203.544L423.361 178.923L398.741 183.265ZM397.131 174.133L392.79 149.513L368.169 153.854L372.511 178.474L397.131 174.133ZM721.133 117.003L745.753 112.662L741.412 88.0413L716.791 92.3826L721.133 117.003ZM725.955 144.353L701.335 148.694L704.393 166.035L721.749 168.997L725.955 144.353ZM779.362 153.468L803.982 149.127L800.924 131.786L783.568 128.824L779.362 153.468ZM786.568 194.337L798.949 216.056L814.246 207.336L811.188 189.996L786.568 194.337ZM739.5 221.168L727.119 199.449L711.822 208.169L714.88 225.51L739.5 221.168ZM745.128 253.085L749.469 277.705L774.089 273.364L769.748 248.744L745.128 253.085ZM673.127 265.781L668.786 241.161L644.166 245.502L648.507 270.122L673.127 265.781ZM681.59 313.773L656.969 318.114L661.707 344.982L688.06 337.921L681.59 313.773ZM683.144 313.356L707.293 306.886L700.822 282.738L676.674 289.208L683.144 313.356ZM691.686 345.232L667.537 351.702L674.008 375.85L698.156 369.38L691.686 345.232ZM694.004 344.611L707.925 323.845L698.497 317.525L687.533 320.462L694.004 344.611ZM732.62 370.498L756.768 364.028L754.338 354.96L746.541 349.733L732.62 370.498ZM843.912 785.846L850.382 809.994L874.531 803.524L868.06 779.376L843.912 785.846ZM635.272 841.751L611.124 848.222L617.594 872.37L641.742 865.899L635.272 841.751ZM523.98 426.403L501.541 415.38L497.402 423.806L499.832 432.874L523.98 426.403ZM544.478 384.676L566.917 395.699L591.196 346.276L538.008 360.528L544.478 384.676ZM532.308 387.937L508.16 394.407L514.63 418.556L538.778 412.085L532.308 387.937ZM528.167 372.482L521.696 348.334L497.548 354.804L504.019 378.953L528.167 372.482ZM542.642 368.603L549.113 392.752L573.241 386.286L566.796 362.153L542.642 368.603ZM538.256 352.179L531.785 328.031L507.657 334.496L514.102 358.63L538.256 352.179ZM539.81 351.763L546.281 375.911L568.408 369.982L564.43 347.421L539.81 351.763ZM523.128 257.151L547.748 252.81L546.979 248.451L544.761 244.621L523.128 257.151ZM451.127 269.847L455.469 294.467L472.682 291.432L475.741 274.223L451.127 269.847ZM415.127 276.195L390.507 280.536L394.848 305.156L419.468 300.815L415.127 276.195ZM404.471 215.763L429.092 211.422L424.75 186.802L400.13 191.143L404.471 215.763ZM244.902 287.563C265.546 283.923 285.727 269.318 295.263 250.067L250.459 227.873C248.188 232.457 241.678 237.36 236.22 238.323L244.902 287.563ZM39.2838 263.909C41.0673 274.024 47.5559 280.117 51.8009 283.114C56.0923 286.143 60.6615 287.906 64.1466 289.004C71.2453 291.239 79.6926 292.478 87.8734 293.253C104.627 294.839 126.028 294.962 147.018 294.429C188.666 293.371 233.553 289.564 244.902 287.563L236.22 238.323C228.708 239.647 186.897 243.399 145.747 244.445C125.337 244.964 106.315 244.775 92.5865 243.475C85.5263 242.807 81.2182 241.959 79.168 241.313C78.0787 240.97 78.9749 241.093 80.6352 242.265C82.249 243.405 87.1482 247.423 88.5242 255.226L39.2838 263.909ZM224.412 171.356C213.063 173.357 169.581 185.132 130.082 198.382C110.176 205.06 90.1072 212.495 74.9068 219.716C67.4844 223.242 59.9702 227.295 54.0643 231.824C51.1648 234.047 47.4741 237.267 44.4776 241.581C41.5135 245.849 37.5003 253.794 39.2838 263.909L88.5242 255.226C89.9001 263.03 86.6708 268.482 85.5439 270.104C84.3846 271.773 83.5845 272.196 84.4908 271.501C86.1965 270.192 89.9548 267.922 96.3606 264.879C108.817 258.962 126.627 252.279 145.984 245.786C185.009 232.695 225.582 221.921 233.094 220.596L224.412 171.356ZM279.03 184.683C263.998 173.375 243.124 168.056 224.412 171.356L233.094 220.596C237.682 219.787 244.613 221.36 248.972 224.64L279.03 184.683ZM281.069 185.805C279.351 184.638 277.588 183.578 275.798 182.62L252.205 226.703C252.507 226.865 252.768 227.025 252.987 227.174L281.069 185.805ZM394.4 158.644L262.687 181.869L271.37 231.109L403.082 207.885L394.4 158.644ZM372.511 178.474L374.121 187.606L423.361 178.923L421.751 169.792L372.511 178.474ZM716.791 92.3826L392.79 149.513L401.472 198.753L725.474 141.623L716.791 92.3826ZM750.575 140.012L745.753 112.662L696.512 121.344L701.335 148.694L750.575 140.012ZM783.568 128.824L730.161 119.709L721.749 168.997L775.156 178.111L783.568 128.824ZM811.188 189.996L803.982 149.127L754.742 157.809L761.948 198.679L811.188 189.996ZM751.881 242.887L798.949 216.056L774.187 172.618L727.119 199.449L751.881 242.887ZM769.748 248.744L764.12 216.827L714.88 225.51L720.507 257.426L769.748 248.744ZM677.468 290.401L749.469 277.705L740.786 228.465L668.786 241.161L677.468 290.401ZM706.21 309.432L697.747 261.44L648.507 270.122L656.969 318.114L706.21 309.432ZM688.06 337.921L689.615 337.504L676.674 289.208L675.119 289.625L688.06 337.921ZM658.996 319.827L663.396 336.247L711.693 323.306L707.293 306.886L658.996 319.827ZM715.834 338.761L711.693 323.306L663.396 336.247L667.537 351.702L715.834 338.761ZM687.533 320.462L685.215 321.084L698.156 369.38L700.474 368.759L687.533 320.462ZM746.541 349.733L707.925 323.845L680.083 365.376L718.699 391.264L746.541 349.733ZM868.06 779.376L756.768 364.028L708.472 376.969L819.764 792.317L868.06 779.376ZM641.742 865.899L850.382 809.994L837.441 761.698L628.801 817.603L641.742 865.899ZM499.832 432.874L611.124 848.222L659.42 835.281L548.128 419.933L499.832 432.874ZM522.04 373.653L501.541 415.38L546.418 437.426L566.917 395.699L522.04 373.653ZM538.778 412.085L550.949 408.824L538.008 360.528L525.837 363.789L538.778 412.085ZM504.019 378.953L508.16 394.407L556.456 381.466L552.315 366.012L504.019 378.953ZM536.172 344.455L521.696 348.334L534.637 396.63L549.113 392.752L536.172 344.455ZM566.796 362.153L562.409 345.728L514.102 358.63L518.489 375.054L566.796 362.153ZM544.726 376.327L546.281 375.911L533.34 327.614L531.785 328.031L544.726 376.327ZM498.508 261.493L515.19 356.104L564.43 347.421L547.748 252.81L498.508 261.493ZM475.741 274.223C478.013 261.445 494.99 258.452 501.495 269.682L544.761 244.621C514.894 193.057 436.943 206.802 426.513 265.471L475.741 274.223ZM419.468 300.815L455.469 294.467L446.786 245.227L410.786 251.575L419.468 300.815ZM379.851 220.104L390.507 280.536L439.747 271.854L429.092 211.422L379.851 220.104ZM277.202 263.59L408.813 240.383L400.13 191.143L268.52 214.35L277.202 263.59Z" fill="black" mask="url(#path-1-outside-1_1300_2)"/>
<rect x="523.98" y="426.403" width="216" height="430" transform="rotate(-15 523.98 426.403)" fill="#FC3C22"/>
<path d="M544.479 384.676L694.004 344.611L732.62 370.498L523.98 426.403L544.479 384.676Z" fill="#D9D9D9"/>
<path d="M718.64 143.104L779.362 153.467L786.568 194.337L733.053 224.843L672.331 214.48L665.124 173.61L718.64 143.104Z" fill="#FC3C22"/>
<path d="M541.124 359.213L685.125 333.822L673.127 265.781L745.128 253.085L721.133 117.003L397.131 174.133L415.127 276.195L451.127 269.847C457.478 234.124 504.942 225.754 523.128 257.151L541.124 359.213Z" fill="#202020"/>
<path d="M275.638 222.233C278.898 240.725 259.422 259.617 240.561 262.943C221.7 266.268 67.1647 278.06 63.904 259.567C60.6433 241.075 209.892 199.301 228.753 195.976C247.614 192.65 272.377 203.741 275.638 222.233Z" fill="#22BCFC"/>
<path d="M277.521 221.394C280.062 235.807 265.403 250.439 251.147 252.953C236.891 255.467 90.9791 269.147 88.4376 254.734C85.8962 240.321 227.688 203.272 241.944 200.758C256.2 198.244 274.979 206.98 277.521 221.394Z" fill="#8CDDFF"/>
<path d="M275.724 222.726C276.54 227.349 271.665 232.073 266.945 232.905C262.224 233.737 145.56 250.444 144.745 245.821C143.93 241.198 259.272 216.996 263.993 216.163C268.713 215.331 274.909 218.103 275.724 222.726Z" fill="#F5F5F5"/>
<path d="M266.777 206.533L398.741 183.264L404.471 215.763L272.507 239.032L266.777 206.533Z" fill="#D9D9D9"/>
<path d="M528.167 372.482L687.545 329.777L691.686 345.232L532.308 387.937L528.167 372.482Z" fill="#808080"/>
<path d="M538.256 352.18L683.145 313.357L687.545 329.778L542.642 368.604L538.256 352.18Z" fill="#151515"/>
<path d="M641.788 446.489C641.449 446.861 641.065 447.192 640.917 447.231C640.774 447.287 640.592 447.458 640.513 447.62C640.433 447.781 640.317 447.935 640.251 447.953C640.17 447.975 639.587 448.552 638.925 449.22C638.283 449.9 637.641 450.581 637.499 450.706C637.253 450.965 637.027 451.236 635.797 452.863C634.871 454.057 632.447 458.23 631.698 459.886C630.961 461.521 629.983 464.482 629.664 466.04C629.527 466.708 629.39 467.376 629.343 467.528C629.297 467.681 629.243 467.941 629.229 468.085C629.215 468.229 629.156 468.595 629.099 468.909C628.983 469.588 628.777 471.765 628.754 472.595C628.755 472.927 628.696 473.294 628.636 473.398C628.58 473.518 628.603 473.862 628.686 474.173C628.773 474.5 628.768 474.94 628.681 475.138C628.599 475.353 628.58 475.744 628.655 476.022C628.725 476.283 628.798 476.948 628.798 477.473C628.816 479.502 629.242 482.14 630.137 485.809C631.381 490.91 631.94 493.845 632.502 498.235C632.644 499.354 632.772 501.598 632.792 503.504C632.805 504.078 632.815 504.9 632.826 505.335C632.854 505.766 632.817 506.284 632.784 506.486C632.75 506.687 632.696 507.403 632.662 508.061C632.628 508.718 632.543 509.32 632.491 509.386C632.422 509.457 632.401 509.638 632.44 509.785C632.545 510.178 631.911 513.31 631.255 515.572C630.714 517.417 629.444 520.335 628.971 520.794C628.846 520.916 628.637 520.989 628.493 520.975C628.258 520.95 628.164 520.73 628.005 519.809C627.64 517.856 626.24 514.269 625.184 512.554C624.335 511.151 623.774 510.302 623.556 510.01C623.009 509.28 620.865 506.84 620.502 506.534C620.293 506.344 619.626 505.752 619.004 505.199C618.404 504.659 617.792 504.21 617.664 504.191C617.537 504.173 617.39 504.019 617.346 503.856C617.303 503.692 617.149 503.576 617.018 503.611C616.887 503.646 616.755 503.611 616.728 503.513C616.676 503.317 612.202 500.694 612.006 500.747C611.924 500.769 611.709 500.686 611.518 500.562C610.916 500.215 610.457 500.005 609.899 499.821C609.341 499.638 609.068 499.798 609.455 500.063C609.567 500.155 609.854 500.57 610.075 501.001C610.275 501.421 610.652 502.109 610.873 502.54C611.144 503.028 611.673 504.675 612.335 507.144C613.369 511.004 613.388 511.139 613.521 514.452C613.541 514.92 613.591 515.695 613.627 516.159C613.664 516.622 613.635 517.103 613.563 517.228C613.503 517.331 613.483 517.582 613.535 517.778C613.584 517.958 613.612 518.459 613.591 518.903C613.57 519.347 613.493 520.892 613.447 522.36C613.398 523.81 613.294 525.258 613.229 525.538C613.168 525.835 613.167 526.221 613.219 526.417C613.256 526.618 613.249 526.988 613.18 527.252C613.11 527.516 613.095 527.853 613.123 528.021C613.171 528.201 613.169 528.587 613.129 528.896C613.077 529.225 613.028 529.957 613.009 530.541C613.006 531.12 612.969 531.831 612.961 532.131C612.933 532.419 612.934 532.945 612.952 533.273C612.953 533.606 612.959 534.48 612.943 535.203C612.926 535.927 612.941 536.834 612.956 537.216C612.987 537.593 613.025 538.652 613.056 539.555C613.156 541.825 613.33 543.654 613.63 545.624C613.773 546.55 613.88 547.538 613.856 547.843C613.82 548.624 616.244 558.194 617.22 561.052C618.232 564.042 619.164 566.474 619.661 567.41C619.852 567.797 620.227 568.608 620.476 569.208C620.728 569.823 621.171 570.757 621.476 571.306C621.781 571.855 622.201 572.637 622.406 573.073C622.622 573.488 622.964 574.045 623.174 574.304C623.363 574.551 623.574 574.881 623.622 575.06C623.683 575.22 623.864 575.504 624.056 575.698C624.249 575.892 624.434 576.193 624.503 576.385C624.556 576.581 624.863 577.007 625.185 577.359C625.503 577.694 625.868 578.14 625.995 578.351C626.341 578.925 629.138 582.032 629.872 582.676C630.256 582.994 630.587 583.379 630.622 583.51C630.652 583.624 630.749 583.721 630.814 583.704C630.896 583.682 631.533 584.16 632.237 584.76C632.946 585.376 633.771 586.032 634.074 586.248C634.373 586.449 634.981 586.882 635.434 587.199C637.297 588.522 641.19 590.617 643.772 591.678C643.872 591.722 644.19 591.864 644.468 591.982C645.429 592.426 648.825 593.515 650.318 593.851C652.752 594.426 656.754 595.159 657 595.093C657.049 595.08 657.337 595.108 657.65 595.164C658.623 595.324 661.252 595.514 661.855 595.475C662.167 595.461 662.476 595.501 662.543 595.553C662.614 595.622 662.877 595.622 663.138 595.552C663.4 595.481 663.938 595.46 664.3 595.503C664.909 595.55 665.484 595.536 667.397 595.409C667.861 595.373 667.753 595.297 666.401 594.572C663.462 593.028 660.162 590.792 659.011 589.575C658.861 589.406 658.464 589.038 658.139 588.74C657.304 587.982 655.357 585.822 654.659 584.852C654.331 584.414 653.953 583.919 653.823 583.761C653.529 583.384 652.682 582.121 652.347 581.527C650.997 579.172 650.624 578.501 650.144 577.56C649.167 575.613 648.292 573.201 647.507 570.203C646.717 567.19 646.218 564.413 646.38 563.774C646.414 563.572 646.412 563.239 646.355 563.027C646.255 562.651 646.454 559.074 646.6 558.702C646.639 558.586 646.667 558.298 646.662 558.019C646.656 557.67 646.74 557.525 647.051 557.441C647.542 557.31 647.659 557.419 648.038 558.439C648.214 558.9 648.528 559.482 648.737 559.742C648.943 559.985 649.129 560.285 649.164 560.416C649.199 560.547 649.379 560.762 649.558 560.907C649.733 561.035 649.922 561.282 649.961 561.43C650.071 561.838 652.088 563.998 653.037 564.725C654.236 565.666 656.823 567.269 657.036 567.212C657.15 567.181 657.402 567.271 657.614 567.407C657.826 567.543 658.049 567.589 658.097 567.506C658.14 567.407 657.822 566.545 657.386 565.575C655.804 562.09 653.699 554.17 653.331 550.377C653.164 548.704 652.981 545.861 653.007 545.24C653.015 544.94 653.043 544.196 653.049 543.564C653.072 542.927 653.129 541.965 653.194 541.421C653.259 540.878 653.31 540.216 653.33 539.965C653.334 539.719 653.378 539.356 653.428 539.15C653.466 538.965 653.682 537.873 653.893 536.764C654.117 535.635 654.459 534.229 654.651 533.634C654.858 533.035 655.014 532.502 654.996 532.437C654.974 532.355 655.634 530.496 655.836 530.073C655.904 529.932 656.019 529.709 656.07 529.572C657.671 525.795 660.273 521.627 662.29 519.597C662.439 519.434 662.624 519.209 662.696 519.085C662.768 518.96 663.008 518.809 663.221 518.752C663.597 518.651 663.627 518.695 663.661 519.282C663.688 519.643 664.145 521.677 664.661 523.8C665.74 528.156 666.344 529.624 668.392 532.879C669.232 534.249 671.219 536.557 672.437 537.633C672.879 538.04 673.259 538.411 673.272 538.461C673.29 538.526 673.515 538.711 673.789 538.883C674.047 539.059 674.534 539.437 674.896 539.743C675.238 540.037 675.725 540.415 675.958 540.563C676.19 540.711 676.897 541.188 677.504 541.621C678.111 542.055 678.781 542.524 678.976 542.664C683.692 545.993 684.713 546.859 687.097 549.603C688.337 551.024 688.946 551.79 689.007 552.019C689.042 552.15 689.151 552.296 689.259 552.372C689.446 552.48 689.933 553.314 690.66 554.784C690.86 555.204 691.174 555.786 691.351 556.054C691.756 556.716 692.548 558.818 693.424 561.563C694.568 565.113 695.129 568.977 695.137 573.129C695.131 574.218 694.95 576.685 694.836 576.979C694.792 577.078 694.703 577.663 694.635 578.26C694.567 578.856 694.443 579.573 694.378 579.854C693.812 581.863 693.379 583.259 693.102 583.929C692.375 585.667 691.453 587.526 690.874 588.506C690.601 588.929 690.406 589.314 690.424 589.38C690.485 589.609 694.452 587.459 695.579 586.561C695.827 586.372 696.144 586.182 696.291 586.142C696.422 586.107 696.756 585.913 697.015 585.703C697.275 585.493 697.786 585.111 698.156 584.854C699.857 583.609 701.183 582.535 702.834 581.041C704.741 579.321 705.76 578.346 705.985 578.006C706.081 577.84 706.234 577.693 706.283 577.68C706.382 577.654 707.156 576.745 708.182 575.471C708.258 575.363 708.621 574.95 708.98 574.521C709.355 574.088 709.737 573.617 709.838 573.468C709.938 573.318 710.684 572.242 711.478 571.082C712.277 569.939 713.314 568.311 713.756 567.474C716.371 562.637 716.029 563.324 717.185 560.438C718.089 558.18 718.922 555.66 718.852 555.399C718.834 555.333 718.917 555.118 719.041 554.927C719.165 554.736 719.402 553.919 719.562 553.14C719.717 552.345 719.899 551.647 719.976 551.609C720.033 551.559 720.063 551.41 720.028 551.28C719.997 551.165 720.073 550.531 720.202 549.901C720.513 548.31 720.591 547.816 720.677 546.566C720.729 545.973 720.8 545.323 720.817 545.126C720.851 544.924 720.889 544.283 720.892 543.703C720.911 543.12 720.928 542.397 720.939 542.113C720.986 541.241 720.911 539.193 720.714 535.775C720.666 535.07 720.53 533.844 720.39 533.058C720.265 532.267 720.159 531.279 720.164 530.839C720.183 530.256 719.71 528.296 718.399 523.336C716.921 517.755 716.477 516.296 715.776 514.661C714.531 511.717 713.678 509.842 713.096 508.718C711.669 505.945 711.364 505.396 711.167 505.186C711.063 505.056 710.838 504.678 710.697 504.347C710.259 503.431 708.048 499.956 707.343 499.094C707.137 498.851 706.956 498.566 706.93 498.468C706.903 498.37 706.781 498.175 706.639 498.038C706.518 497.912 706.098 497.394 705.72 496.899C704.716 495.573 703.738 494.345 703.483 494.115C703.35 494.011 703.174 493.812 703.09 493.695C702.589 493.005 700.686 491.008 699.22 489.595C698.297 488.703 697.429 487.884 697.303 487.743C696.593 487.056 695.593 486.203 694.118 485.02C693.202 484.284 692.41 483.62 692.351 483.53C692.292 483.441 692.202 483.43 692.149 483.497C692.065 483.642 692.892 485.875 693.716 487.775C694.383 489.279 696.972 499.401 697.061 500.779C697.134 501.969 697.233 503.45 697.342 504.578C697.374 505.025 697.384 505.653 697.382 505.97C697.234 508.691 697.135 510.418 697.082 510.678C697.044 510.863 696.893 511.675 696.742 512.486C696.439 514.233 695.536 517.017 695.215 517.26C694.89 517.488 694.502 516.89 694.152 515.582C693.99 514.977 693.706 514.247 693.541 513.958C693.372 513.653 692.957 512.694 692.622 511.837C692.299 510.96 691.756 509.651 691.419 508.917C691.082 508.183 690.579 507.091 690.314 506.496C690.029 505.889 689.715 505.307 689.614 505.194C689.509 505.064 689.298 504.735 689.15 504.442C688.571 503.264 686.305 499.717 685.963 499.423C685.872 499.342 685.628 499.022 685.417 498.693C685.054 498.124 684.413 497.367 683.27 496.113C682.994 495.801 682.646 495.421 682.516 495.263C681.553 494.154 678.29 491.207 676.17 489.514C675.766 489.184 675.183 488.709 674.887 488.455C674.591 488.202 674.058 487.784 673.68 487.552C673.318 487.315 673.006 487.066 672.993 487.017C672.98 486.968 672.73 486.755 672.43 486.554C672.131 486.354 671.457 485.868 670.95 485.479C670.442 485.089 669.389 484.302 668.591 483.744C665.966 481.871 664.369 480.686 662.928 479.565C662.149 478.949 661.45 478.435 661.388 478.399C661.032 478.249 657.47 475.102 655.283 473.024C650.597 468.565 647.428 464.33 645.208 459.579C644.642 458.381 644.346 457.408 643.703 454.811C642.93 451.6 642.864 451.092 642.904 448.557C642.923 446.992 642.981 446.293 643.108 446.048C643.462 445.34 642.575 445.63 641.788 446.489Z" fill="black"/>
</svg>
