<svg width="100" height="100" viewBox="0 0 100 100" fill="none" xmlns="http://www.w3.org/2000/svg">
<g clip-path="url(#clip0_1290_2)">
<path fill-rule="evenodd" clip-rule="evenodd" d="M50.0053 80L50.0391 80.0001C55.2933 79.9932 60.4537 78.6065 65.0039 75.9785C69.5636 73.345 73.3498 69.5578 75.9821 64.9974C78.6144 60.437 80.0001 55.2641 79.9998 49.9985C79.9995 44.733 78.6133 39.5602 75.9806 35.0001L75.9849 34.9976C73.2274 30.216 74.8664 24.1039 79.6472 21.3438C84.4294 18.5827 90.5444 20.2213 93.3054 25.0035C93.3444 25.0709 93.3824 25.1386 93.4196 25.2066C97.7307 32.7563 99.9993 41.3009 99.9998 49.9975C100 58.7734 97.6909 67.3949 93.3037 74.9956C88.9165 82.5962 82.6061 88.9083 75.0066 93.2974C67.4664 97.6524 58.9207 99.9621 50.2157 99.9996C50.1457 100.001 50.0756 100.002 50.0053 100.002C44.482 100.002 40.0044 95.5243 40.0044 90.0009C40.0044 84.4776 44.482 80 50.0053 80Z" fill="white" fill-opacity="0.8"/>
</g>
<defs>
<clipPath id="clip0_1290_2">
<rect width="100" height="100" fill="white"/>
</clipPath>
</defs>
</svg>
