<svg width="1000" height="1000" viewBox="0 0 1000 1000" fill="none" xmlns="http://www.w3.org/2000/svg">
<mask id="path-1-outside-1_1285_2" maskUnits="userSpaceOnUse" x="76" y="26" width="848" height="915" fill="black">
<rect fill="white" x="76" y="26" width="848" height="915"/>
<path fill-rule="evenodd" clip-rule="evenodd" d="M132.5 640.625L116.49 485.526C105.761 458.422 100 429.716 100 400V350C100 184.315 279.086 50 500 50C720.914 50 900 184.315 900 350V400C900 429.716 894.24 458.422 883.51 485.526L867.5 640.625C867.5 792.779 702.965 916.125 500 916.125C297.035 916.125 132.5 792.779 132.5 640.625Z"/>
</mask>
<path fill-rule="evenodd" clip-rule="evenodd" d="M132.5 640.625L116.49 485.526C105.761 458.422 100 429.716 100 400V350C100 184.315 279.086 50 500 50C720.914 50 900 184.315 900 350V400C900 429.716 894.24 458.422 883.51 485.526L867.5 640.625C867.5 792.779 702.965 916.125 500 916.125C297.035 916.125 132.5 792.779 132.5 640.625Z" fill="black"/>
<path d="M116.49 485.526L140.363 483.061L140.023 479.769L138.805 476.692L116.49 485.526ZM132.5 640.625H156.5V639.39L156.373 638.161L132.5 640.625ZM883.51 485.526L861.195 476.692L859.977 479.769L859.637 483.061L883.51 485.526ZM867.5 640.625L843.627 638.161L843.5 639.39V640.625H867.5ZM92.6166 487.99L108.627 643.089L156.373 638.161L140.363 483.061L92.6166 487.99ZM76 400C76 432.866 82.3795 464.563 94.1746 494.359L138.805 476.692C129.142 452.281 124 426.565 124 400H76ZM124 400V350H76V400H124ZM500 26C384.852 26 279.682 60.9745 202.757 118.668C125.825 176.367 76 257.909 76 350H124C124 276.405 163.718 207.948 231.557 157.068C299.404 106.183 394.234 74 500 74V26ZM924 350C924 257.909 874.175 176.367 797.243 118.668C720.318 60.9745 615.148 26 500 26V74C605.766 74 700.596 106.183 768.443 157.068C836.282 207.948 876 276.405 876 350H924ZM876 350V400H924V350H876ZM905.825 494.359C917.621 464.563 924 432.866 924 400H876C876 426.565 870.858 452.281 861.195 476.692L905.825 494.359ZM891.373 643.089L907.383 487.99L859.637 483.061L843.627 638.161L891.373 643.089ZM500 940.125C606.171 940.125 703.214 907.894 774.258 854.636C845.308 801.373 891.5 725.955 891.5 640.625H843.5C843.5 707.45 807.425 769.782 745.466 816.23C683.5 862.683 596.794 892.125 500 892.125V940.125ZM108.5 640.625C108.5 725.955 154.692 801.373 225.742 854.636C296.786 907.894 393.829 940.125 500 940.125V892.125C403.206 892.125 316.5 862.683 254.534 816.23C192.575 769.782 156.5 707.45 156.5 640.625H108.5Z" fill="black" mask="url(#path-1-outside-1_1285_2)"/>
<path fill-rule="evenodd" clip-rule="evenodd" d="M897.5 350H102.5L132.5 640.625C132.5 792.779 297.035 916.125 500 916.125C702.965 916.125 867.5 792.779 867.5 640.625L897.5 350Z" fill="#E7E7E7"/>
<path d="M890 350C890 428.989 847.334 501.263 776.843 554.132C706.348 607.003 608.502 640 500 640C391.498 640 293.652 607.003 223.157 554.132C152.666 501.263 110 428.989 110 350C110 271.011 152.666 198.737 223.157 145.868C293.652 92.997 391.498 60 500 60C608.502 60 706.348 92.997 776.843 145.868C847.334 198.737 890 271.011 890 350Z" fill="#D9D9D9" stroke="white" stroke-width="20"/>
<path d="M890 400C890 478.989 847.334 551.263 776.843 604.132C706.348 657.003 608.502 690 500 690C391.498 690 293.652 657.003 223.157 604.132C152.666 551.263 110 478.989 110 400C110 321.011 152.666 248.737 223.157 195.868C293.652 142.997 391.498 110 500 110C608.502 110 706.348 142.997 776.843 195.868C847.334 248.737 890 321.011 890 400Z" fill="white" stroke="white" stroke-width="20"/>
<rect x="100" y="350" width="800" height="50" fill="white"/>
<ellipse cx="500" cy="350" rx="380" ry="280" fill="#FFA500"/>
<ellipse cx="444.52" cy="185.641" rx="68.4" ry="49.56" fill="#D16500"/>
<ellipse cx="447.18" cy="526.96" rx="71.06" ry="52.08" fill="#D16500"/>
<ellipse cx="552.819" cy="355.04" rx="51.3" ry="38.08" fill="#D16500"/>
<ellipse cx="285.68" cy="326.759" rx="90.44" ry="66.36" fill="#D16500"/>
<ellipse cx="676.701" cy="474.88" rx="55.1" ry="40.88" fill="#D16500"/>
<ellipse cx="717.741" cy="256.48" rx="96.14" ry="70.56" fill="#D16500"/>
<path fill-rule="evenodd" clip-rule="evenodd" d="M190 788.527C182.703 779.957 176.021 771.063 170 761.882L170 542H190L190 787V788.527ZM230 827.401C223.013 821.731 216.339 815.84 210 809.745L210 579H230L230 827.401ZM270 855.387C263.126 851.247 256.455 846.925 250 842.432V604H270V855.387ZM310 876.37C303.185 873.279 296.516 870.026 290 866.619L290 630H310L310 876.37ZM350 892.081C343.222 889.807 336.553 887.383 330 884.815L330 633H350L350 892.081ZM390 903.446C383.247 901.86 376.579 900.132 370 898.267L370 650H390V903.446ZM430 911.008C423.266 910.035 416.598 908.923 410 907.678V650H430V911.008ZM470 915.095C463.281 914.688 456.612 914.146 450 913.472V652H470V915.095ZM510 915.9C506.677 915.967 503.344 916 500 916C496.656 916 493.323 915.967 490 915.9V652H510V915.9ZM550 913.472C543.388 914.146 536.719 914.688 530 915.095V652H550V913.472ZM590 907.678C583.402 908.923 576.734 910.035 570 911.008V906V665H590V906V907.678ZM630 898.267C623.421 900.132 616.753 901.86 610 903.446V633H630V898.267ZM670 884.815C663.447 887.383 656.778 889.807 650 892.081V633H670V884.815ZM710 866.619C703.484 870.026 696.815 873.279 690 876.37V621H710V866.619ZM750 842.432C743.545 846.925 736.874 851.247 730 855.387V614H750V842.432ZM790 809.745C783.661 815.84 776.987 821.731 770 827.401V579H790V809.745ZM830 761.882C823.979 771.063 817.297 779.957 810 788.527V542H830V761.882ZM130 615.571L130 484L150 484L150 724V724.746C138.652 698.23 132.517 669.964 132.5 640.625L130 615.571ZM870 617.188L867.5 640.625C867.483 669.964 861.348 698.23 850 724.746V484H870V617.188Z" fill="white"/>
</svg>
